<?xml version="1.0" encoding="UTF-8"?>
<svg xmlns="http://www.w3.org/2000/svg" xmlns:xlink="http://www.w3.org/1999/xlink" width="48px" height="42px" viewBox="0 0 47 42" version="1.1">
<g id="surface1">
<path style=" stroke:none;fill-rule:nonzero;fill:rgb(56.862745%,76.470588%,0%);fill-opacity:1;" d="M 47 5.796875 C 37.875 9.632812 33.453125 7.476562 29.527344 4.789062 L 25.105469 20.578125 C 29.058594 23.296875 33.8125 25.535156 42.578125 21.558594 L 47.082031 5.796875 Z M 47 5.796875 "/>
<path style=" stroke:none;fill-rule:nonzero;fill:rgb(0%,70.588235%,94.509804%);fill-opacity:1;" d="M 17.417969 37.574219 C 13.464844 34.886719 9.125 32.648438 0 36.484375 L 4.480469 20.636719 C 13.601562 16.828125 18.027344 18.984375 21.980469 21.699219 Z M 17.417969 37.574219 "/>
<path style=" stroke:none;fill-rule:nonzero;fill:rgb(97.254902%,40.784314%,17.254902%);fill-opacity:1;" d="M 22.726562 18.84375 C 20.265625 16.90625 17.269531 15.800781 14.15625 15.679688 C 11.75 15.652344 8.875 16.351562 5.253906 17.863281 L 9.730469 2.070312 C 18.882812 -1.765625 23.277344 0.390625 27.230469 3.109375 Z M 22.726562 18.84375 "/>
<path style=" stroke:none;fill-rule:nonzero;fill:rgb(100%,76.470588%,0%);fill-opacity:1;" d="M 24.328125 23.238281 C 28.3125 25.929688 32.707031 28.085938 41.828125 24.246094 L 37.324219 39.984375 C 28.199219 43.820312 23.804688 41.664062 19.851562 38.949219 L 24.355469 23.238281 Z M 24.328125 23.238281 "/>
</g>
</svg>
